<?xml version="1.0" standalone="no"?>
<!DOCTYPE svg PUBLIC "-//W3C//DTD SVG 20010904//EN"
 "http://www.w3.org/TR/2001/REC-SVG-20010904/DTD/svg10.dtd">
<svg version="1.0" xmlns="http://www.w3.org/2000/svg"
 width="2048.000000pt" height="661.000000pt" viewBox="0 0 2048.000000 661.000000"
 preserveAspectRatio="xMidYMid meet">

<g transform="translate(0.000000,661.000000) scale(0.100000,-0.100000)"
fill="#000000" stroke="none">
<path d="M1233 5355 c-68 -29 -63 133 -61 -2024 l3 -1951 28 -27 27 -28 1048
-5 c576 -3 1053 -2 1061 1 16 7 -84 57 -315 157 -94 41 -164 65 -210 72 -40 5
-327 10 -676 10 -429 0 -614 3 -632 11 -13 7 -30 23 -36 38 -7 18 -10 261 -8
803 3 731 4 778 21 795 17 17 61 18 695 21 1041 5 1225 -12 1457 -131 119 -61
247 -192 304 -309 122 -252 104 -578 -50 -893 -21 -43 -39 -84 -39 -91 0 -13
93 -32 201 -41 l67 -6 37 79 c156 328 184 696 73 962 -66 159 -180 293 -334
391 -80 52 -247 123 -316 136 -21 4 -38 11 -38 15 0 4 39 20 88 35 363 113
586 349 653 690 19 97 17 300 -5 410 -22 115 -88 312 -129 390 l-32 60 -45 -2
c-63 -3 -194 -23 -210 -33 -11 -7 -4 -30 32 -107 96 -207 133 -369 125 -552
-6 -150 -22 -216 -81 -336 -115 -233 -349 -380 -661 -414 -217 -23 -581 -32
-1163 -29 l-604 3 -24 28 -24 28 0 775 c0 536 3 782 11 796 25 47 36 48 707
48 517 0 638 3 684 15 68 17 440 180 471 206 21 18 -5 18 -1023 18 -868 0
-1050 -2 -1077 -14z"/>
<path d="M4190 5363 c-613 -49 -1066 -219 -1377 -517 -285 -272 -449 -581
-570 -1074 -19 -79 -32 -150 -29 -158 4 -11 32 -14 136 -14 153 0 132 -20 184
180 102 397 292 728 533 931 292 247 659 377 1155 409 94 7 379 10 670 8 l508
-3 27 -28 28 -27 0 -1723 c0 -947 -3 -1734 -8 -1749 -16 -58 -14 -58 -616 -58
-307 0 -607 5 -678 11 -380 32 -713 139 -965 311 -115 78 -272 234 -357 353
-72 103 -195 347 -241 480 -18 50 -47 150 -66 224 -18 74 -39 138 -46 143 -7
4 -68 8 -136 8 -93 0 -124 -3 -128 -13 -9 -23 46 -244 102 -416 170 -517 448
-865 864 -1080 256 -132 520 -203 915 -248 204 -23 1509 -27 1563 -4 67 28 62
-128 62 2025 0 1369 -3 1962 -11 1979 -24 54 3 52 -764 53 -390 0 -730 -1
-755 -3z"/>
<path d="M8815 5215 c-188 -39 -353 -169 -439 -347 -65 -134 -89 -249 -89
-438 0 -166 12 -250 52 -368 51 -147 131 -256 248 -336 101 -69 194 -98 328
-104 193 -8 333 46 465 178 85 84 143 188 180 320 41 150 44 426 5 586 -41
169 -151 333 -283 420 -126 84 -316 120 -467 89z m318 -159 c135 -67 240 -209
284 -381 13 -54 17 -112 18 -255 0 -212 -10 -263 -76 -398 -184 -375 -651
-375 -841 1 -58 115 -72 192 -72 397 -1 163 2 194 22 263 60 208 176 344 340
398 43 14 80 18 152 16 87 -2 101 -6 173 -41z"/>
<path d="M11950 5217 c-50 -25 -51 -34 -48 -816 3 -676 4 -729 21 -754 20 -31
69 -37 103 -13 18 14 19 33 24 367 l5 352 304 -324 c402 -429 381 -409 430
-409 49 0 78 33 64 74 -4 13 -141 163 -304 333 -162 169 -312 327 -333 350
l-38 42 336 356 c185 195 338 366 342 379 8 32 -12 66 -39 67 -37 2 -61 -2
-78 -15 -8 -6 -163 -168 -344 -361 -180 -192 -332 -351 -337 -353 -4 -2 -8
151 -8 341 0 314 -2 347 -17 365 -24 27 -53 34 -83 19z"/>
<path d="M13404 5222 c-21 -13 -36 -54 -29 -79 3 -14 62 -129 132 -256 69
-128 168 -311 221 -407 52 -96 105 -189 118 -207 24 -32 24 -32 24 -322 0
-278 1 -292 20 -311 27 -27 74 -26 100 2 19 21 20 34 20 314 0 291 0 293 23
321 30 36 456 825 468 866 8 30 -2 64 -25 79 -21 15 -65 8 -85 -13 -11 -12
-115 -203 -233 -425 -117 -222 -215 -404 -218 -404 -3 0 -101 181 -219 403
-117 221 -223 412 -234 425 -20 22 -61 29 -83 14z"/>
<path d="M16835 5220 c-52 -20 -50 9 -53 -749 -2 -388 0 -730 3 -759 4 -33 14
-61 26 -73 22 -22 67 -25 95 -5 18 14 19 33 24 367 l5 352 314 -334 c382 -407
373 -399 422 -399 48 0 76 34 62 74 -4 14 -141 164 -303 333 -163 169 -313
327 -334 350 l-38 42 330 349 c181 192 335 359 342 371 37 69 -48 114 -115 62
-11 -9 -166 -171 -344 -361 -178 -190 -328 -346 -332 -348 -5 -2 -9 151 -9
341 0 314 -2 347 -17 365 -22 25 -51 33 -78 22z"/>
<path d="M18797 5200 c-14 -11 -35 -44 -45 -73 -95 -252 -505 -1409 -509
-1433 -7 -42 24 -74 72 -74 47 0 55 14 137 243 37 106 73 204 79 220 l12 27
335 -2 336 -3 82 -230 c46 -127 91 -235 100 -242 26 -19 78 -16 97 5 10 10 17
31 17 47 0 15 -117 355 -260 754 -293 817 -276 781 -374 781 -38 0 -60 -6 -79
-20z m228 -549 c80 -226 145 -414 145 -416 0 -3 -133 -5 -296 -5 -178 0 -294
4 -292 9 2 5 68 194 148 419 80 226 146 409 148 408 1 -2 67 -188 147 -415z"/>
<path d="M6605 5185 l-25 -24 0 -730 0 -730 24 -28 24 -28 309 1 c255 0 320 3
376 17 149 37 237 102 290 215 31 65 32 72 32 197 0 129 0 130 -34 193 -19 35
-53 79 -75 98 -42 36 -134 84 -160 84 -28 0 -17 16 19 29 66 23 131 85 167
158 32 66 33 71 33 194 0 120 -1 128 -30 184 -52 102 -149 157 -325 185 -36 5
-186 10 -333 10 l-268 0 -24 -25z m669 -123 c132 -48 191 -160 165 -309 -20
-117 -108 -209 -222 -233 -31 -6 -141 -9 -272 -8 l-220 3 -3 275 c-1 151 0
281 3 288 4 12 49 13 248 10 218 -4 248 -6 301 -26z m28 -697 c79 -34 133 -78
159 -131 21 -42 24 -63 24 -154 0 -89 -3 -111 -22 -146 -29 -55 -99 -115 -159
-137 -70 -26 -216 -38 -409 -35 l-170 3 -3 313 -2 313 267 -3 c240 -3 273 -6
315 -23z"/>
<path d="M10152 5198 c-33 -16 -39 -55 -13 -81 21 -21 31 -22 266 -25 l245 -3
2 -715 c3 -695 4 -716 22 -730 34 -24 83 -18 103 13 17 25 18 77 21 730 l3
703 224 0 c217 0 270 6 287 33 15 23 8 56 -14 71 -20 14 -90 16 -573 15 -377
0 -557 -4 -573 -11z"/>
<path d="M15114 5198 c-12 -5 -27 -21 -33 -34 -16 -36 -16 -1467 0 -1497 16
-30 28 -37 66 -37 24 0 37 7 50 27 16 24 18 62 21 370 l3 343 213 0 213 0 138
-307 c167 -373 189 -419 210 -427 30 -11 73 -6 89 10 33 32 18 77 -129 402
-79 175 -145 325 -147 332 -2 7 14 17 37 24 116 36 217 123 256 221 20 51 23
78 24 180 0 109 -2 125 -26 176 -54 114 -148 183 -294 214 -85 18 -656 21
-691 3z m628 -119 c150 -32 227 -115 236 -255 9 -141 -47 -243 -167 -301 l-56
-28 -267 -3 -268 -3 0 300 0 301 235 0 c135 0 256 -5 287 -11z"/>
<path d="M14859 3011 l-24 -19 -3 -736 c-3 -807 -4 -787 56 -803 15 -5 205 -8
422 -8 362 0 398 2 423 18 33 21 35 56 6 83 -20 18 -44 19 -390 22 l-369 3 0
688 c0 477 -3 698 -11 720 -18 52 -68 66 -110 32z"/>
<path d="M9941 2994 c-21 -26 -21 -33 -21 -774 0 -707 1 -749 18 -770 22 -27
65 -29 92 -5 20 18 20 35 20 682 0 364 3 663 8 663 4 0 183 -298 397 -662 233
-395 401 -669 417 -681 41 -30 106 -27 135 7 l23 27 0 747 c0 839 4 792 -70
792 -30 0 -42 -5 -52 -22 -10 -18 -14 -169 -18 -673 l-5 -649 -383 649 c-211
358 -395 660 -408 673 -20 17 -37 22 -79 22 -46 0 -56 -4 -74 -26z"/>
<path d="M13618 2995 c-18 -18 -94 -217 -283 -742 -141 -395 -260 -737 -262
-759 -5 -35 -2 -44 18 -58 13 -9 33 -16 45 -16 48 0 65 31 148 261 l81 224
338 0 339 0 83 -229 c49 -136 90 -235 101 -244 24 -17 84 -9 101 15 7 9 13 26
13 37 0 18 -454 1301 -512 1444 -28 72 -56 92 -128 92 -48 0 -61 -4 -82 -25z
m243 -564 c76 -217 139 -396 139 -398 0 -1 -133 -3 -295 -3 -162 0 -295 4
-295 8 0 4 65 192 145 417 80 225 145 411 146 414 1 10 18 -38 160 -438z"/>
<path d="M6579 2991 l-24 -19 -3 -714 c-2 -392 0 -728 3 -746 11 -63 31 -67
290 -67 270 1 339 12 481 80 127 61 218 152 279 279 70 146 80 200 80 426 -1
228 -11 284 -80 427 -62 128 -149 214 -277 278 -135 66 -189 75 -479 75 -228
0 -249 -1 -270 -19z m546 -116 c199 -52 354 -224 401 -445 21 -99 21 -301 0
-400 -37 -174 -151 -332 -286 -398 -108 -52 -164 -62 -362 -62 l-178 0 0 660
0 660 183 0 c132 0 199 -4 242 -15z"/>
<path d="M8352 3003 c-7 -3 -19 -18 -27 -33 -13 -25 -15 -132 -15 -740 0 -778
-1 -761 58 -777 15 -5 216 -8 447 -8 472 0 468 0 463 63 -5 59 -19 61 -445 61
l-373 1 0 305 0 305 333 0 c369 1 371 1 365 61 -5 57 -16 59 -375 59 l-323 0
0 295 0 295 373 1 c422 0 440 3 445 59 6 61 15 60 -472 59 -243 0 -447 -3
-454 -6z"/>
<path d="M11590 2990 c-28 -28 -25 -56 7 -77 24 -16 57 -18 265 -21 l238 -3 0
-699 c0 -513 3 -706 12 -725 20 -45 89 -46 118 -3 13 20 15 121 18 725 l3 702
232 3 c203 3 236 5 260 21 33 22 36 60 5 81 -20 14 -92 16 -580 16 -545 0
-558 0 -578 -20z"/>
</g>
</svg>
