<svg id="Layer_1" data-name="Layer 1" xmlns="http://www.w3.org/2000/svg" viewBox="0 0 1600 400"><defs><style>.cls-1{fill:#1a66df;}.cls-2{fill:#f3c805;}</style></defs><path class="cls-1" d="M256.31,351.33c-12.33,6.59-24.55,13-38.11,16.41-12.85,3.22-25.72,6-39.06,5.91-5,0-10-.14-15.06,0-19.51.61-38.12-3.88-55.94-11.11-37-15-65.51-39.91-84.93-75A159.1,159.1,0,0,1,5,233.64c-5.81-38.54,1-74.25,21.3-107.56,20-32.7,47.27-57.36,81.32-74.37,24.49-12.23,50.5-20.16,77.39-25.83,34.64-7.3,69.63-7,104.45-5.2,36,1.86,70.71,11.2,104,25.54a206.59,206.59,0,0,1,74.34,54.07c19.52,22.22,33.66,47.75,39.11,76.85,6.27,33.52,3.14,66.49-11.35,98-22.18,48.25-59.33,78.86-109.76,93.68a110.92,110.92,0,0,1-34.28,4.86c-13.63-.38-27.31.57-40.84-2.1-15.25-3-30-7.33-43.81-14.65C263.35,355.11,259.88,353.24,256.31,351.33Zm6.14-91.72q-6.13-5.19-12.29,0c-2.22,1.33-4.78,2.31-6.58,4.06-4.51,4.38-8.62,9.24-9.32,15.81-1.48,13.7,2.16,25.45,13.71,33.93a20.08,20.08,0,0,0,2.43,3c5.16,4.37,6.6,4.37,11.8,0a19,19,0,0,0,2.43-3c3.23-3.66,6.85-7.06,9.6-11,5.67-8.24,7.24-25.82-1.93-35C269.38,264.4,265.76,262.17,262.45,259.61ZM221.93,319.5c-1.17-2.33-2.27-4.7-3.5-7-10.92-20.44-7.29-47.1,8.53-61.47.65-.59.82-1.71,1.39-3-2.59-1.06-5-2-7.4-3-13.29-5.31-26.34-11.43-36.68-21.36-19.71-18.94-27.42-42.22-22.66-69.48,3.36-19.3,14.25-31.54,33-36.77,8.38-2.33,16.19,1,24.31,2.28,16,2.51,23.11,14.13,29.77,26.5,2.56,4.77.05,9.8-5.05,10.34-3.56.37-7.67.52-10.77-.9a111.84,111.84,0,0,1-19.76-11.22c-8.24-6-16-5.39-21.78,3.39-5.6,8.52-7.35,17.53-5.94,28.1a51.68,51.68,0,0,0,17,32.71c13.56,12.44,29.76,19.4,47.56,23.09a12.71,12.71,0,0,0,12.72,0,95.42,95.42,0,0,0,36.52-14.57c15.27-10,26.31-22.56,28.09-42.25,1-10.6-.91-19.52-6.58-27.91-5.17-7.65-13.12-8.43-20.47-3.18a112,112,0,0,1-17.79,10.69c-3.71,1.72-8.33,2.15-12.51,2.06-5.93-.12-8.89-5.15-6-10.31A182,182,0,0,1,276,128.14c1.29-1.76,3.57-2.91,5.59-4a65.46,65.46,0,0,1,26.45-7.38c20.86-1.49,38.23,14.93,42.68,34.42,2.34,10.22,1.9,20.18.18,30.52-2.77,16.75-10.29,30.8-22.6,41.95-10.85,9.82-23.76,16.69-37.64,21.59a57.82,57.82,0,0,0-6.89,3.52c1.5,1.74,2.31,2.77,3.21,3.72,9.16,9.59,13.28,21.11,13.39,34.25.11,11.95-4.3,22.5-9.73,32.77l-4.05,5.5-8.38,7.61a188,188,0,0,0,35.92,9.3c26.15,4.42,50.68.15,74.2-11.22,20.56-9.94,36.62-25.34,49.55-43.83,10.53-15.06,17.35-32.14,18.95-50.4A157.55,157.55,0,0,0,453.37,185c-7.27-29.7-23.08-53.22-48.31-70.33-16.25-11-34.5-17.88-52.94-24-19.11-6.35-39-9.87-59-11.8-16.78-1.62-33.78-1-50.69-.78a318.7,318.7,0,0,0-43.55,3.89,255.19,255.19,0,0,0-81.18,26.64c-23,12.19-40.29,30.12-51,54a130.06,130.06,0,0,0-10,37c-2.2,17.29-2.65,34.43,1.78,51.36,7.92,30.24,26,53.49,51.25,71.13,20.52,14.35,43.61,21.81,68.86,21.31,7.27-.14,14.52-1.15,21.77-1.87,11.54-1.15,22.51-4.51,33.93-8.95L226,325Zm10.35-177.09c-2-5.76-5.38-6.59-10.4-7C224.11,140.4,227.45,141.29,232.28,142.41Zm50.46-.91c7.06-1.53,7.06-1.53,8.59-6.36C287.63,136.19,284,136.71,282.74,141.5Z"/><path class="cls-2" d="M249.94,231.74V221.47c-6.5-2.12-13.12-3.89-19.44-6.42-16.65-6.66-27.88-18.41-33.1-35.84-1.57-5.27-1.27-10.32-1.19-15.91h120c2.06,16.16-4.37,28.83-15,39.52s-24,15.89-38.5,18v11A12.71,12.71,0,0,1,249.94,231.74Z"/><path class="cls-2" d="M250.16,259.6q6.15-5.18,12.29,0c0,14.84-.2,29.68,0,44.52,0,3.1,1.42,6.18,2.18,9.27a19,19,0,0,1-2.43,3c-5.2,4.37-6.64,4.37-11.8,0a20.08,20.08,0,0,1-2.43-3c.77-3.09,2.15-6.17,2.19-9.27C250.36,289.29,250.2,274.44,250.16,259.6Z"/><path class="cls-2" d="M226,325a13.51,13.51,0,0,1-3.86,0c-1.34-.38-3.32-1.12-3.62-2.13-.76-2.53,1.35-3.16,3.42-3.41Z"/><path class="cls-2" d="M290.67,319.51c2.07.24,4.18.86,3.43,3.4-.3,1-2.28,1.75-3.63,2.13a13.1,13.1,0,0,1-3.85,0Z"/><path class="cls-1" d="M598.37,203.65q1.51-14.79,2.15-24.52,1.18-17.25,2.54-47.23,1-20.88,1-29.42V95.67c8.79.11,14.86.16,18.17.16q3.33,0,17.07-.16l-3.73,59.09-1.91,48.89-17.15-.16Q612.82,203.49,598.37,203.65Zm39.63-57,17.72-24.11L670,102.47l4.42-6.8q14.71.17,19.94.16,1.43,0,18.9-.16L679.92,137.8l-6.25,8.46,5.86,9.34,33.06,48.05-19.46-.16q-6.33,0-21.43.16Q661.48,184.42,638,146.66Z"/><path class="cls-1" d="M722.24,203.65q1.51-13.92,2.38-25.08t1.51-25.86q.63-14.72,1-31.05t.32-26q9.89.24,16,.24,6.33,0,15.43-.35t17.71-.36q10.13,0,18,.79a44.18,44.18,0,0,1,10.79,2.3,31.12,31.12,0,0,1,8.19,4.23,25.81,25.81,0,0,1,5.53,5.57,23.68,23.68,0,0,1,3.44,7.24,31.23,31.23,0,0,1,1.23,8.9,35.36,35.36,0,0,1-1.35,9.93,28.75,28.75,0,0,1-4.23,8.7,28,28,0,0,1-7.27,7,64.47,64.47,0,0,1-12.3,6L802.69,166q1.74,4.19,3.72,8.54L817,197.72q.71,1.5,2.53,5.93-13-.17-17.55-.16-5.7,0-18.66.16-1.26-4.11-4.59-15.27c-.9-3.11-1.66-5.51-2.3-7.2q-1.89-5.61-5.62-15.74l-8.16-22.38a46.74,46.74,0,0,0,8.39.79,30,30,0,0,0,10.48-1.74,14.11,14.11,0,0,0,7.12-5.38,13.65,13.65,0,0,0,2.41-7.67,10.13,10.13,0,0,0-1.82-6,10.77,10.77,0,0,0-5.73-3.83Q779.6,118,771.44,118q-2.76,0-5.73.12t-6.92.2q-1,16.22-1.8,39.55t-1,45.8q-13.23-.17-17.19-.16Q734.2,203.49,722.24,203.65Z"/><path class="cls-1" d="M836.23,203.65q4.56-63.53,4.56-97.77l-.08-10.21q13.85.17,18.52.16,2.14,0,17-.16-1.43,17.81-2.3,33.7-1.11,22.15-1.59,41.41t-.47,32.87l-16.21-.16Q850.93,203.49,836.23,203.65Z"/><path class="cls-1" d="M891.36,203.65,892.94,187,896,130.72,896.9,108V95.67q12.29.17,21.71.16,6.74,0,18.93-.16l33.77,61.41,4.65,9q.9-13.29,1.83-37.27t.93-33.16q9.72.17,15.57.16,2.69,0,15.49-.16l-1.9,23.58-3.56,65.49-.48,18.91q-10.29-.17-19.23-.16-7.44,0-20.58.16-4.11-7.76-6.08-11.24l-13.28-22.55q-6.55-11.09-12.08-21.21-3.65-6.41-7.51-14.08l-1.7,37.5-.81,31.58q-9.8-.17-14.93-.16Q903.29,203.49,891.36,203.65Z"/><path class="cls-1" d="M1087.77,140.68q10.83.16,20.65.16,16.77,0,26.26-.16-1,10.84-2.09,30.7t-1.31,30q-9.09,1.67-15.07,2.42t-14.36,1.34q-8.37.6-14.95.6a127.35,127.35,0,0,1-21.12-1.75,70.23,70.23,0,0,1-18.55-5.61,38.78,38.78,0,0,1-13.64-10.52,48,48,0,0,1-8.43-15.74,60.31,60.31,0,0,1-3-18.83,58.46,58.46,0,0,1,8-29.82,57,57,0,0,1,23-21.79q15-8,38.72-8a198.2,198.2,0,0,1,38.37,4.19q0,11.55,1,25.71-5.7-1.9-9.22-2.89c-2.35-.66-5.09-1.26-8.23-1.82s-6.11-1-8.93-1.22-5.34-.4-7.56-.4a53.47,53.47,0,0,0-16.45,2.49,35.08,35.08,0,0,0-13.33,7.67,32.83,32.83,0,0,0-8.35,12.38,42.1,42.1,0,0,0-2.76,15.19,32.22,32.22,0,0,0,3.16,14.52,21,21,0,0,0,10.05,9.69,34.86,34.86,0,0,0,15.34,3.32,65.26,65.26,0,0,0,15.43-2.06l.9-17.16c-3.44-.16-5.47-.24-6.11-.24l-8.4.08.55-9.73c.06-1.05.14-2.57.24-4.55S1087.77,144.11,1087.77,140.68Z"/><path class="cls-1" d="M1149.86,203.65q2-18.68,2.87-30.46,1.66-21.51,2.5-42.75t.83-34.77q10.76.17,19,.16,5.61,0,16.12-.16l-1.9,28.64L1187,169.08l-.32,11q13.61.22,17.72.23,20.82,0,31.5-.55l-1.74,23.89q-20.8-.17-39.63-.16Q1169,203.49,1149.86,203.65Z"/><path class="cls-1" d="M1231.42,203.65l6.57-11.39,40.91-77,4.36-8.62q1.89-3.8,5.3-10.92,13.92.17,20.33.16,11.14,0,20.64-.16l11.54,33,23.48,63.44,4.58,11.55q-13.7-.17-16.62-.16-6.66,0-19.56.16-3.48-13.05-10-30.69H1283.1q-6.87,13.92-14.23,30.69-14.73-.17-18-.16Q1244.8,203.49,1231.42,203.65Zm61.24-53.71h24.57q-9.17-27.87-10-30.72-5.21,11.61-8.85,19Z"/><path class="cls-1" d="M1377.52,203.65,1379.1,187l3.09-56.32.87-22.71V95.67q12.27.17,21.7.16,6.73,0,18.94-.16l33.77,61.41,4.65,9q.9-13.29,1.83-37.27t.93-33.16q9.72.17,15.57.16,2.68,0,15.48-.16L1494,119.25l-3.56,65.49-.48,18.91q-10.29-.17-19.23-.16-7.44,0-20.58.16-4.11-7.76-6.09-11.24l-13.27-22.55q-6.55-11.09-12.09-21.21-3.63-6.41-7.5-14.08l-1.7,37.5-.81,31.58c-6.54-.11-11.51-.16-14.94-.16Q1389.46,203.49,1377.52,203.65Z"/><path class="cls-1" d="M1509.46,202q-1-16.86-2.37-27a84.6,84.6,0,0,0,15.81,5.5,56.75,56.75,0,0,0,12.16,1.54q6.9,0,11-2t4.08-6a8.18,8.18,0,0,0-.4-2.57,10.19,10.19,0,0,0-1.5-2.76,21.58,21.58,0,0,0-3.17-3.37l-14.91-13c-3.49-2.95-5.91-5.09-7.29-6.41a47.57,47.57,0,0,1-6.54-7.51,26.14,26.14,0,0,1-3.41-7.08,26.75,26.75,0,0,1-1.07-7.63,27.34,27.34,0,0,1,1.7-9.46,28.38,28.38,0,0,1,14.12-15.62,40.19,40.19,0,0,1,12-4,79.31,79.31,0,0,1,13.21-1.07A152.66,152.66,0,0,1,1582,96.7c.15,3.64.34,7,.55,10s.71,8.34,1.5,15.94a73,73,0,0,0-13.29-4.08,56.72,56.72,0,0,0-10.36-1.14,20.63,20.63,0,0,0-10.24,2.29q-4.08,2.3-4.08,5.7a7.73,7.73,0,0,0,.64,3.08,14,14,0,0,0,2.37,3.52,41.27,41.27,0,0,0,4.59,4.43q2.85,2.42,8.94,7.16l5.69,4.51a71.66,71.66,0,0,1,5.46,5,53.76,53.76,0,0,1,5.06,5.78,31.8,31.8,0,0,1,3.28,5.22,22.47,22.47,0,0,1,1.71,4.78,23.72,23.72,0,0,1,.55,5.18,29,29,0,0,1-13,24.17,40.23,40.23,0,0,1-13.73,5.81,72.37,72.37,0,0,1-15.78,1.67Q1529,205.71,1509.46,202Z"/><path class="cls-1" d="M624.9,323.65l-2.17-7.15-14.3-41.19-11.26-31.64q8,.12,14.17.12,3.79,0,11.94-.12,1.35,5.22,2.11,7.91,1.07,3.53,4,12.73L638,292q1.29,4.33,3.17,11.32l2.7-6.74,20.43-44.8,1.2-2.82c.44-1.05,1.16-2.83,2.13-5.33q8.5.12,13.66.12,3.23,0,12.78-.12-6,11.13-13.52,26l-20.21,40.08q-2.93,5.87-6.56,13.89-9.84-.12-14.06-.12Q635.8,323.53,624.9,323.65Z"/><path class="cls-1" d="M683.54,323.65l4.86-8.44,30.31-57.07,3.23-6.39c.93-1.87,2.24-4.57,3.92-8.08q10.32.12,15.06.12,8.26,0,15.29-.12l8.55,24.43,17.39,47,3.4,8.56q-10.14-.12-12.31-.12-4.92,0-14.47.12-2.57-9.67-7.43-22.74H721.81q-5.12,10.32-10.56,22.74-10.9-.12-13.36-.12Q693.44,323.53,683.54,323.65Zm45.36-39.79h18.23q-6.79-20.67-7.44-22.78-3.87,8.61-6.56,14.12Zm24.3-57.13a11.77,11.77,0,0,1-1.61,6,11.65,11.65,0,0,1-4.42,4.42,11.92,11.92,0,0,1-6,1.62,11.75,11.75,0,0,1-6-1.62,11.53,11.53,0,0,1-4.4-4.39,12.2,12.2,0,0,1,0-12,11.62,11.62,0,0,1,4.4-4.4,11.84,11.84,0,0,1,6-1.61,12,12,0,0,1,6,1.61,12,12,0,0,1,6,10.4Zm-8,.21a4,4,0,0,0-1.23-3,4,4,0,0,0-2.88-1.21,3.89,3.89,0,0,0-2.81,1.21,4,4,0,0,0-1.23,3,4.17,4.17,0,0,0,4.1,4.13,3.9,3.9,0,0,0,2.82-1.21A4,4,0,0,0,745.24,226.94Z"/><path class="cls-1" d="M791.58,323.65q1.13-10.32,1.77-18.58t1.11-19.16q.48-10.89.71-23t.23-19.25q7.32.18,11.84.17c3.12,0,6.93-.08,11.42-.26s8.87-.26,13.12-.26q7.5,0,13.36.58a33,33,0,0,1,8,1.7,23,23,0,0,1,6.06,3.14,18.87,18.87,0,0,1,4.1,4.13,17.4,17.4,0,0,1,2.55,5.36,23,23,0,0,1,.91,6.59,26,26,0,0,1-1,7.35,21.41,21.41,0,0,1-3.13,6.45,20.76,20.76,0,0,1-5.39,5.21,47.84,47.84,0,0,1-9.11,4.49l3,7.44q1.29,3.11,2.76,6.33l7.85,17.16c.35.75,1,2.21,1.87,4.4q-9.66-.12-13-.12-4.23,0-13.82.12-.95-3-3.41-11.31-1-3.45-1.7-5.33-1.41-4.17-4.16-11.66l-6-16.58a34.11,34.11,0,0,0,6.21.58,22.2,22.2,0,0,0,7.76-1.29,10.41,10.41,0,0,0,5.27-4,10.14,10.14,0,0,0,1.79-5.69,7.46,7.46,0,0,0-1.35-4.42,8,8,0,0,0-4.25-2.84,31.06,31.06,0,0,0-8.93-.94c-1.37,0-2.78,0-4.25.09s-3.17.11-5.13.15q-.75,12-1.33,29.29t-.75,33.93q-9.8-.12-12.73-.12Q800.45,323.53,791.58,323.65Z"/><path class="cls-1" d="M875.9,323.65q1.29-13.36,1.77-21.39.71-12,1.41-30.94.54-14.52.53-20.8v-6.85q6.85.18,11.84.17,4.8,0,12.59-.26t14.65-.26a89.58,89.58,0,0,1,13.76.93,32.37,32.37,0,0,1,11,3.87,27.12,27.12,0,0,1,8.58,7.68,35,35,0,0,1,5.28,11.1,47.46,47.46,0,0,1,1.81,13.1,57.18,57.18,0,0,1-1.4,12.74,47.8,47.8,0,0,1-3.93,11.05,35.81,35.81,0,0,1-5.89,8.46,34.33,34.33,0,0,1-7.7,6.07,33.47,33.47,0,0,1-6.51,2.93,48.54,48.54,0,0,1-9,1.7,133.57,133.57,0,0,1-14.36.7l-23.67-.18Q883.4,323.47,875.9,323.65ZM901.23,306c2.15.2,4.39.29,6.74.29a48.88,48.88,0,0,0,10.65-1.05,16.89,16.89,0,0,0,8.23-4.51,20.9,20.9,0,0,0,5.24-8.88,37,37,0,0,0,1.7-11.1A24.93,24.93,0,0,0,931.27,269a14.2,14.2,0,0,0-6.71-6.65q-4.18-1.87-11.39-1.88-4.23,0-10,.36Z"/><path class="cls-1" d="M1037.85,304.14c-.47,2.29-1,5.5-1.7,9.61s-1.11,7.29-1.34,9.55a153,153,0,0,1-22.39,1.87,63.2,63.2,0,0,1-17.66-2.37,43.38,43.38,0,0,1-15-7.79A30.81,30.81,0,0,1,970,302.26a43.87,43.87,0,0,1-2.93-16.4,44.54,44.54,0,0,1,4-19.08,37.39,37.39,0,0,1,11.36-14.12,47.15,47.15,0,0,1,16.26-8.08,68.79,68.79,0,0,1,18.29-2.44,129.23,129.23,0,0,1,21.44,2.23l.12,4.92q.11,3.22.35,7.09l.41,6.68q-6.85-1.63-11.1-2.22a58.2,58.2,0,0,0-7.89-.59,31.37,31.37,0,0,0-14.23,3.16,23.84,23.84,0,0,0-10,9.2A25.37,25.37,0,0,0,992.44,286a20.88,20.88,0,0,0,3,11.46,20.54,20.54,0,0,0,8.23,7.38,28.31,28.31,0,0,0,12.8,2.61,66.73,66.73,0,0,0,9.06-.68A106.43,106.43,0,0,0,1037.85,304.14Z"/><path class="cls-1" d="M1049,323.65q1.46-15.12,2.14-25.31t1.35-27.1q.68-16.9.68-22.42l-.06-5.15q13.82.12,33.45.12,18.1,0,31.93-.12l-.12,1.92c0,.47-.14,2.17-.29,5.09l-.35,6.36c-.08,1.36-.12,2.75-.12,4.15q-11.31-.46-19-.47-8.43,0-11.39,0c-2,0-5,.11-9.23.26l-.71,13.48q6.92.18,16.12.17,3.27,0,17.46-.41-.58,7.5-1.11,17.87-10.14-.11-15.58-.11-8.09,0-18.09.41l-.7,14.24h6.73q3,0,12.36-.18l12.12-.29c1.8,0,4.8-.2,9-.47q-.7,8.67-1.17,17.93-14.31-.12-31.35-.12l-25.78.06Z"/><path class="cls-1" d="M1128.2,323.65l1.18-12.31,2.28-41.72.65-16.81v-9.14q9.09.12,16.08.12,5,0,14-.12l25,45.48,3.45,6.69q.66-9.85,1.35-27.61t.7-24.56q7.2.12,11.53.12c1.32,0,5.15,0,11.47-.12l-1.41,17.46-2.63,48.51-.36,14q-7.62-.12-14.24-.12-5.52,0-15.25.12-3-5.75-4.5-8.33l-9.84-16.7q-4.85-8.21-9-15.71-2.68-4.76-5.56-10.43l-1.26,27.78-.6,23.39c-4.84-.08-8.52-.12-11.06-.12C1138.11,323.53,1134.1,323.57,1128.2,323.65Z"/><path class="cls-1" d="M1244.45,323.65q2.91-28.48,3.5-62.7l-24.94.65.29-6.51c.16-3.47.27-7.28.35-11.42q16.63.12,38.78.12l14.47-.06H1291l7.61-.06-.35,5.74c-.16,3.08-.26,5.62-.32,7.63s-.09,3.53-.09,4.56q-12.52-.64-20.66-.65h-4.1q-.88,10.35-1.36,19.13-.64,12.57-1,24.42t-.36,19.15q-9.6-.12-12.41-.12Q1255.4,323.53,1244.45,323.65Z"/><path class="cls-1" d="M1302.7,323.65q1.11-10.32,1.76-18.58t1.11-19.16q.48-10.89.71-23t.24-19.25q7.32.18,11.83.17c3.12,0,6.93-.08,11.42-.26s8.87-.26,13.13-.26q7.5,0,13.35.58a33,33,0,0,1,8,1.7,23,23,0,0,1,6.06,3.14,18.87,18.87,0,0,1,4.1,4.13,17.4,17.4,0,0,1,2.55,5.36,23,23,0,0,1,.91,6.59,26.33,26.33,0,0,1-1,7.35,21.44,21.44,0,0,1-3.14,6.45,20.76,20.76,0,0,1-5.39,5.21,47.84,47.84,0,0,1-9.11,4.49l3,7.44q1.28,3.11,2.75,6.33l7.85,17.16c.35.75,1,2.21,1.88,4.4q-9.68-.12-13-.12-4.21,0-13.82.12-.95-3-3.4-11.31-1-3.45-1.7-5.33-1.41-4.17-4.17-11.66l-6-16.58a34.11,34.11,0,0,0,6.21.58,22.2,22.2,0,0,0,7.76-1.29,10.44,10.44,0,0,0,5.28-4,10.13,10.13,0,0,0,1.78-5.69,7.46,7.46,0,0,0-1.35-4.42,7.93,7.93,0,0,0-4.24-2.84,31.19,31.19,0,0,0-8.94-.94c-1.37,0-2.78,0-4.25.09s-3.17.11-5.12.15q-.75,12-1.33,29.29t-.75,33.93q-9.81-.12-12.73-.12Q1311.56,323.53,1302.7,323.65Z"/><path class="cls-1" d="M1390.42,243.67q9.13.12,12.89.12,4.68,0,12.47-.12l-1.74,24.9q-.52,7-.79,13.18t-.26,8.5a36,36,0,0,0,.65,7.44,11.87,11.87,0,0,0,2.34,5.07,10.22,10.22,0,0,0,4.71,3.13A18.76,18.76,0,0,0,1427,307a17.62,17.62,0,0,0,5.27-.77,12.35,12.35,0,0,0,3.46-1.74,11.78,11.78,0,0,0,2.34-2.44,17.61,17.61,0,0,0,2.17-4.19,25.81,25.81,0,0,0,1.4-6.14q.53-3.84,1.41-17.44.77-11.58,1.17-21.21c.24-6.24.45-9.35.65-9.35h25.83l-2.84,41.6c0,.78-.06,1.43-.06,1.93q-.24,12.19-1.5,17.2a22.59,22.59,0,0,1-4.19,8.7,26.34,26.34,0,0,1-8.55,6.65,43.06,43.06,0,0,1-12.78,4.19,85.25,85.25,0,0,1-14.48,1.23,82.59,82.59,0,0,1-12.66-.94,49.55,49.55,0,0,1-10.14-2.72,36,36,0,0,1-7.85-4.19,20.4,20.4,0,0,1-4.69-4.54,18.31,18.31,0,0,1-2.58-5.54,27.94,27.94,0,0,1-1-7.79c0-.94,0-2.35.11-4.25s.26-4.62.53-8.17l.77-9.38c.19-2.46.41-6.07.64-10.84Z"/><path class="cls-1" d="M1478.83,323.65l1.45-11.84,3.6-41.07,1.8-27.07q10.83.12,17,.12,5.11,0,15.64-.12.77,5,1.29,7.64t2.6,10.2q2.07,7.59,3.33,13.12t3.77,19q2.58-9.19,4.69-15.82t5.29-15.06c2.11-5.62,3.45-9.31,4-11s1.34-4.41,2.32-8c5.85.08,11.6.12,17.22.12q5.75,0,15.94-.12-1.11,19.74-1.47,33.92-.75,27.78-.76,38.21,0,2.16.12,7.85-7.74-.12-10.84-.12-4.52,0-11.07.12.46-5.28,1.19-25.11t.71-25.34q0-2.4-.12-6.68l-7.68,23.85-11,33.28c-5.08-.08-8.57-.12-10.49-.12q-3.63,0-11.13.12L1509,291.42l-4.23-17.17c-.16-.66-.33-1.48-.53-2.46s-.51-2.69-.94-5.15l-1.48,16.23-1.94,33.28-.18,7.5q-8.09-.12-10.31-.12C1487.34,323.53,1483.83,323.57,1478.83,323.65Z"/></svg>