<svg id="Layer_2" data-name="Layer 2" xmlns="http://www.w3.org/2000/svg" viewBox="0 0 1000 400"><defs><style>.cls-1{fill:#00b1ff;}.cls-2{fill:#00d3cd;}.cls-3{fill:#231f20;}</style></defs><title>uvc_logo_lowprofile_final</title><path class="cls-1" d="M268,143H224.35v22H268a14.35,14.35,0,0,1,14.33,14.33v35.18A14.35,14.35,0,0,1,268,228.84H233a36.37,36.37,0,0,0-36.33,36.33v35a14.35,14.35,0,0,1-14.33,14.33H147.52a14.35,14.35,0,0,1-14.33-14.33V211.51A46.57,46.57,0,0,1,179.7,165h11.39V143H179.7a68.59,68.59,0,0,0-68.52,68.52v88.67a36.37,36.37,0,0,0,36.33,36.33h34.85a36.37,36.37,0,0,0,36.33-36.33v-35A14.35,14.35,0,0,1,233,250.84h35a36.37,36.37,0,0,0,36.33-36.33V179.33A36.37,36.37,0,0,0,268,143Z"/><path class="cls-2" d="M182.44,56.54H147.59a36.37,36.37,0,0,0-36.33,36.33v35a14.35,14.35,0,0,1-14.33,14.33h-35a36.37,36.37,0,0,0-36.33,36.33v35.18a36.37,36.37,0,0,0,36.33,36.33H105.6v-22H61.92a14.35,14.35,0,0,1-14.33-14.33V178.54a14.35,14.35,0,0,1,14.33-14.33h35a36.37,36.37,0,0,0,36.33-36.33v-35a14.35,14.35,0,0,1,14.33-14.33h34.85a14.35,14.35,0,0,1,14.33,14.33v88.67a46.57,46.57,0,0,1-46.52,46.52H138.87v22h11.39a68.59,68.59,0,0,0,68.52-68.52V92.87A36.37,36.37,0,0,0,182.44,56.54Z"/><path class="cls-3" d="M373.61,204.54a41.23,41.23,0,0,0,34.44,0,33,33,0,0,0,13.75-11.64c3.57-5.22,5.38-11.66,5.38-19.14V126.53a7.55,7.55,0,0,0-7.54-7.54,7.18,7.18,0,0,0-5.29,2.24,7.4,7.4,0,0,0-2.12,5.3v47.58a19.88,19.88,0,0,1-3,11.08,18.66,18.66,0,0,1-7.83,6.8,25.44,25.44,0,0,1-21.23,0,18.65,18.65,0,0,1-7.82-6.8,19.86,19.86,0,0,1-3-11.08V126.53A7.55,7.55,0,0,0,361.9,119a7.18,7.18,0,0,0-5.29,2.24,7.4,7.4,0,0,0-2.12,5.3v47.22c0,7.48,1.81,13.92,5.38,19.14A33,33,0,0,0,373.61,204.54Z"/><path class="cls-3" d="M526.75,200.29v-5.5a49.12,49.12,0,0,0-3.3-17.27A18.49,18.49,0,0,0,515,167.44a23.11,23.11,0,0,0,8.09-7.31,25,25,0,0,0,4.36-14.23,23.71,23.71,0,0,0-8.87-19.15c-5.77-4.75-14.41-7.16-25.68-7.16H465.06a7.09,7.09,0,0,0-5.29,2.24,7.4,7.4,0,0,0-2.12,5.3v73.16a7.35,7.35,0,0,0,7.42,7.42,7.4,7.4,0,0,0,5.3-2.12,7.18,7.18,0,0,0,2.24-5.29v-25.7h22.71c4.92,0,8.58,1.15,10.88,3.42a15.68,15.68,0,0,1,4.58,8.06,51.6,51.6,0,0,1,1,10.64v3.59a7.24,7.24,0,0,0,2.09,5.33,7.4,7.4,0,0,0,5.45,2.09,7.35,7.35,0,0,0,7.42-7.42Zm-14.24-53.56a11,11,0,0,1-5.14,9.79c-3.66,2.47-8.77,3.72-15.18,3.72H472.6V133.95h19c7.88,0,13.45,1.15,16.54,3.43C511.09,139.54,512.52,142.6,512.52,146.73Z"/><path class="cls-3" d="M584.37,193.95a55.41,55.41,0,0,1-22.73-4.73,7.62,7.62,0,0,0-3.1-.65,6.64,6.64,0,0,0-5,2.15,7.13,7.13,0,0,0-.59,9,7.42,7.42,0,0,0,3.26,2.68,73.28,73.28,0,0,0,29.26,5.9,42.4,42.4,0,0,0,16.83-3.15,27.24,27.24,0,0,0,11.61-9A22.17,22.17,0,0,0,618.08,183c0-5.9-1.55-10.69-4.62-14.24a27.08,27.08,0,0,0-10.72-7.62,123,123,0,0,0-15.53-4.63,109.2,109.2,0,0,1-11.31-3.1,17.32,17.32,0,0,1-6.32-3.73,7.22,7.22,0,0,1-2.18-5.52c0-3.57,1.61-6.29,4.94-8.3,3.6-2.18,8.42-3.29,14.31-3.29a56.59,56.59,0,0,1,18.49,3.08,7.31,7.31,0,0,0,2.67.63,6.37,6.37,0,0,0,5-2.28,7.24,7.24,0,0,0,1.8-4.78,6.7,6.7,0,0,0-4.68-6.69,70.36,70.36,0,0,0-24.5-4.07,41.4,41.4,0,0,0-17.66,3.48,26.78,26.78,0,0,0-11.42,9.58,24.45,24.45,0,0,0-3.91,13.48c0,5.68,1.63,10.33,4.84,13.81a29.45,29.45,0,0,0,11,7.51,146.42,146.42,0,0,0,15.88,4.91c4.78,1.25,8.51,2.34,11.08,3.24a17.62,17.62,0,0,1,6,3.37,5.67,5.67,0,0,1,2,4.45C603.25,185.13,603.25,193.95,584.37,193.95Z"/><path class="cls-3" d="M716.46,129.28a7.79,7.79,0,0,0,.49-2.75,7.53,7.53,0,0,0-2-5.41,7.19,7.19,0,0,0-5.42-2.12,7,7,0,0,0-4.26,1.42A8.49,8.49,0,0,0,702.5,124l-26.2,65.34-26.22-65.38a8.47,8.47,0,0,0-2.76-3.53,7,7,0,0,0-4.26-1.41,7.19,7.19,0,0,0-5.42,2.12,7.53,7.53,0,0,0-2,5.41,7.87,7.87,0,0,0,.51,2.81L665.72,201c2.52,5.53,6.43,6.69,9.27,6.69h2.63c2.83,0,6.74-1.16,9.3-6.76Z"/><path class="cls-3" d="M749.1,207.71a7.41,7.41,0,0,0,5.3-2.12,7.18,7.18,0,0,0,2.24-5.29V126.53A7.55,7.55,0,0,0,749.1,119a7.18,7.18,0,0,0-5.29,2.24,7.39,7.39,0,0,0-2.12,5.3v73.76a7.35,7.35,0,0,0,7.42,7.42Z"/><path class="cls-3" d="M857,205.56h0a6.67,6.67,0,0,0,2-5.15,7.58,7.58,0,0,0-1.76-4.73l-30.55-38.5L853.11,131a7,7,0,0,0,1.91-5.15,6.51,6.51,0,0,0-2.15-4.91A7,7,0,0,0,848,119a7.21,7.21,0,0,0-5.52,2.52L805,159.57v-33a7.55,7.55,0,0,0-7.54-7.54,7.18,7.18,0,0,0-5.29,2.24,7.39,7.39,0,0,0-2.12,5.3v73.76a7.35,7.35,0,0,0,7.42,7.42,7.41,7.41,0,0,0,5.3-2.12,7.18,7.18,0,0,0,2.24-5.29V178.77l11.41-11.51,29.37,37.45a7.06,7.06,0,0,0,6,3A7.19,7.19,0,0,0,857,205.56Z"/><path class="cls-3" d="M911.8,193.95a55.41,55.41,0,0,1-22.72-4.73,7.62,7.62,0,0,0-3.1-.65,6.64,6.64,0,0,0-5,2.15,7.14,7.14,0,0,0-.59,9,7.43,7.43,0,0,0,3.26,2.68,73.29,73.29,0,0,0,29.26,5.9,42.39,42.39,0,0,0,16.83-3.15,27.25,27.25,0,0,0,11.61-9A22.16,22.16,0,0,0,945.51,183c0-5.9-1.55-10.69-4.62-14.24a27.07,27.07,0,0,0-10.72-7.62,123,123,0,0,0-15.53-4.63,109.3,109.3,0,0,1-11.31-3.1,17.32,17.32,0,0,1-6.32-3.73,7.22,7.22,0,0,1-2.18-5.52c0-3.57,1.61-6.29,4.94-8.3,3.6-2.18,8.42-3.29,14.31-3.29a56.6,56.6,0,0,1,18.49,3.08,7.3,7.3,0,0,0,2.67.63,6.38,6.38,0,0,0,5-2.28,7.25,7.25,0,0,0,1.8-4.78,6.7,6.7,0,0,0-4.68-6.69,70.36,70.36,0,0,0-24.5-4.07,41.4,41.4,0,0,0-17.66,3.48,26.79,26.79,0,0,0-11.42,9.58,24.46,24.46,0,0,0-3.91,13.48c0,5.68,1.63,10.33,4.84,13.81a29.45,29.45,0,0,0,11,7.51,146.38,146.38,0,0,0,15.88,4.91c4.78,1.25,8.51,2.35,11.08,3.24a17.64,17.64,0,0,1,6,3.37,5.67,5.67,0,0,1,2,4.45C930.68,185.13,930.68,193.95,911.8,193.95Z"/><path class="cls-3" d="M403.72,238.27a5.08,5.08,0,0,0-3.8-1.51,5,5,0,0,0-3,1,5.86,5.86,0,0,0-1.92,2.47l-14.71,36.68-14.73-36.72a5.83,5.83,0,0,0-1.9-2.43,5,5,0,0,0-3-1,5.08,5.08,0,0,0-3.8,1.51,5.26,5.26,0,0,0-1.41,3.78,5.5,5.5,0,0,0,.37,2l17.48,42.38c1.68,3.67,4.31,4.44,6.23,4.44h1.55c1.92,0,4.56-.77,6.26-4.51L404.79,244a5.43,5.43,0,0,0,.34-1.92A5.26,5.26,0,0,0,403.72,238.27Z"/><path class="cls-3" d="M436.12,240.9l0,0a7.52,7.52,0,0,0-1.93-2.62,8.93,8.93,0,0,0,1.75-1.36,8.68,8.68,0,1,0-12.28,0,8.91,8.91,0,0,0,1.75,1.36,7.53,7.53,0,0,0-1.94,2.65l-18,42.53a5.73,5.73,0,0,0-.51,2.2,5.19,5.19,0,0,0,1.45,3.67,5.09,5.09,0,0,0,3.76,1.54,5.25,5.25,0,0,0,2.92-.86,5.45,5.45,0,0,0,2-2.37l4.07-9.77h21.3l4.1,9.83a5.4,5.4,0,0,0,2,2.3,5.25,5.25,0,0,0,2.91.86,5.09,5.09,0,0,0,3.76-1.54,5.19,5.19,0,0,0,1.45-3.67,5.79,5.79,0,0,0-.51-2.21Zm.16,27h-13l6.48-15.61Zm-5.49-36.17a1.33,1.33,0,0,1-2,0,1.42,1.42,0,1,1,2,0Z"/><path class="cls-3" d="M506.11,262.37a15.57,15.57,0,0,0,2.72-8.88,14.81,14.81,0,0,0-5.55-12c-3.56-2.93-8.85-4.42-15.71-4.42H471.12a5.06,5.06,0,0,0-3.73,1.58,5.24,5.24,0,0,0-1.49,3.71v43.23a5.17,5.17,0,0,0,5.22,5.22,5.26,5.26,0,0,0,3.71-1.49,5.06,5.06,0,0,0,1.58-3.73V271.29H489c2.68,0,4.65.6,5.85,1.78a8.45,8.45,0,0,1,2.47,4.34,29.68,29.68,0,0,1,.59,6.11v2.12a5.16,5.16,0,0,0,1.48,3.74,5.25,5.25,0,0,0,3.81,1.48,5.17,5.17,0,0,0,5.22-5.22v-3.25a29.86,29.86,0,0,0-2-10.5,12,12,0,0,0-4.18-5.65A14.27,14.27,0,0,0,506.11,262.37ZM498.33,254a5.67,5.67,0,0,1-2.67,5.09c-2,1.36-4.89,2.05-8.5,2.05H476.41V247.27h10.4c5.58,0,8.13,1,9.28,1.86A5.54,5.54,0,0,1,498.33,254Z"/><path class="cls-3" d="M555.32,241h0a27.09,27.09,0,0,0-14.76-3.88h-14.2a5.06,5.06,0,0,0-3.73,1.58,5.24,5.24,0,0,0-1.49,3.71v42.88a5.17,5.17,0,0,0,5.22,5.22h14.2a27.08,27.08,0,0,0,14.76-3.88,25.08,25.08,0,0,0,9.17-10,28.37,28.37,0,0,0,0-25.56A25.08,25.08,0,0,0,555.32,241Zm1.78,22.8a17.32,17.32,0,0,1-2.13,8.7,14.75,14.75,0,0,1-6,5.79,19.16,19.16,0,0,1-9.2,2.12h-8.13V247.2h8.13a19.17,19.17,0,0,1,9.2,2.12,14.77,14.77,0,0,1,6,5.79A17.32,17.32,0,0,1,557.1,263.81Z"/><path class="cls-3" d="M595,248.86a18.22,18.22,0,0,1,9.32-2.23,23.1,23.1,0,0,1,6.29.77,30.52,30.52,0,0,1,5.72,2.34,4.83,4.83,0,0,0,2.18.5A4.74,4.74,0,0,0,622,248.8a4.67,4.67,0,0,0,1.34-3.28,4.87,4.87,0,0,0-2.59-4.46,38.88,38.88,0,0,0-7.94-3.43,32.16,32.16,0,0,0-9.17-1.22A28.1,28.1,0,0,0,590,239.74a24.22,24.22,0,0,0-9.63,9.62,31.8,31.8,0,0,0,0,28.9,24.24,24.24,0,0,0,9.63,9.62,28.12,28.12,0,0,0,13.66,3.32,32.2,32.2,0,0,0,9.17-1.21,38.66,38.66,0,0,0,7.92-3.41,4.88,4.88,0,0,0,2.62-4.47,4.64,4.64,0,0,0-1.38-3.35,4.82,4.82,0,0,0-3.49-1.37,4.89,4.89,0,0,0-2.22.51,30.43,30.43,0,0,1-5.69,2.32,23.1,23.1,0,0,1-6.29.77,18.21,18.21,0,0,1-9.32-2.23,14,14,0,0,1-5.63-6,21.58,21.58,0,0,1,0-17.9A14,14,0,0,1,595,248.86Z"/><path class="cls-3" d="M668.13,247.2a5.05,5.05,0,0,0,3.57-1.42,4.86,4.86,0,0,0,1.51-3.59,5.05,5.05,0,0,0-5.08-5.08H639.81a5.06,5.06,0,0,0-3.73,1.58,5.24,5.24,0,0,0-1.49,3.71v42.88a5.17,5.17,0,0,0,5.22,5.22h28.33a5.05,5.05,0,0,0,3.57-1.42,4.86,4.86,0,0,0,1.51-3.59,5.05,5.05,0,0,0-5.08-5.08h-23V268.81h20.5a5.06,5.06,0,0,0,3.57-1.42,4.86,4.86,0,0,0,1.51-3.59,5.05,5.05,0,0,0-5.08-5.07h-20.5V247.2Z"/><path class="cls-3" d="M727.12,236.77a5.06,5.06,0,0,0-3.73,1.58,5.24,5.24,0,0,0-1.49,3.71v31.62l-23.54-34a6.78,6.78,0,0,0-5.5-2.92h-.92a6.44,6.44,0,0,0-4.71,2,6.63,6.63,0,0,0-1.92,4.71v42.17a5.17,5.17,0,0,0,5.22,5.22,5.25,5.25,0,0,0,3.71-1.49,5.06,5.06,0,0,0,1.58-3.73V253.94l23.67,34.19a6.89,6.89,0,0,0,2.29,2,6.45,6.45,0,0,0,3.08.77h.85a6.62,6.62,0,0,0,4.71-1.92,6.44,6.44,0,0,0,2-4.71V242.05a5.29,5.29,0,0,0-5.29-5.29Z"/><path class="cls-3" d="M781.93,237.12H746.75a4.87,4.87,0,0,0-3.59,1.51,5.05,5.05,0,0,0-1.41,3.56,4.93,4.93,0,0,0,5,5h12.37v38.44a5.17,5.17,0,0,0,5.22,5.22,5.25,5.25,0,0,0,3.71-1.49,5.06,5.06,0,0,0,1.58-3.73V247.2h12.3a5,5,0,0,0,3.56-1.42,4.86,4.86,0,0,0,1.51-3.59,5.05,5.05,0,0,0-5.08-5.08Z"/><path class="cls-3" d="M836.57,262.37a15.57,15.57,0,0,0,2.72-8.88,14.81,14.81,0,0,0-5.55-12c-3.56-2.93-8.85-4.42-15.71-4.42H801.57a5.06,5.06,0,0,0-3.73,1.58,5.25,5.25,0,0,0-1.49,3.71v43.23a5.17,5.17,0,0,0,5.22,5.22,5.25,5.25,0,0,0,3.71-1.49,5.06,5.06,0,0,0,1.58-3.73V271.29h12.58c2.68,0,4.65.6,5.85,1.78a8.45,8.45,0,0,1,2.47,4.34,29.59,29.59,0,0,1,.59,6.11v2.12a5.15,5.15,0,0,0,1.48,3.74,5.25,5.25,0,0,0,3.81,1.48,5.17,5.17,0,0,0,5.22-5.22v-3.25a29.87,29.87,0,0,0-2-10.5,12,12,0,0,0-4.18-5.65A14.26,14.26,0,0,0,836.57,262.37ZM828.78,254a5.67,5.67,0,0,1-2.67,5.09c-2,1.36-4.89,2.05-8.5,2.05H806.86V247.27h10.39c5.58,0,8.13,1,9.28,1.86A5.54,5.54,0,0,1,828.78,254Z"/><path class="cls-3" d="M880.16,240.9v0A7.49,7.49,0,0,0,878,238a5.92,5.92,0,0,0-3.77-1.25h-.71a5.91,5.91,0,0,0-3.77,1.25,7.49,7.49,0,0,0-2.2,2.89l-18,42.53a5.72,5.72,0,0,0-.51,2.2,5.19,5.19,0,0,0,1.45,3.67,5.09,5.09,0,0,0,3.77,1.54,5.25,5.25,0,0,0,2.91-.86,5.47,5.47,0,0,0,2-2.37l4.07-9.77h21.3l4.1,9.83a5.39,5.39,0,0,0,2,2.3,5.24,5.24,0,0,0,2.91.86,5.09,5.09,0,0,0,3.77-1.54,5.19,5.19,0,0,0,1.45-3.67,5.74,5.74,0,0,0-.52-2.21Zm.16,27h-13l6.48-15.61Z"/><path class="cls-3" d="M944.95,281.55a5.18,5.18,0,0,0-3.74-1.55H920.15V242.05a5.29,5.29,0,0,0-5.29-5.29,5.06,5.06,0,0,0-3.73,1.58,5.25,5.25,0,0,0-1.49,3.71v42a6.5,6.5,0,0,0,6.49,6.49h25.08a5.24,5.24,0,0,0,3.71-1.49,5.06,5.06,0,0,0,1.58-3.73A5.18,5.18,0,0,0,944.95,281.55Z"/></svg>